<?xml version="1.0" encoding="UTF-8" standalone="no"?>
<svg
   xmlns:dc="http://purl.org/dc/elements/1.1/"
   xmlns:cc="http://creativecommons.org/ns#"
   xmlns:rdf="http://www.w3.org/1999/02/22-rdf-syntax-ns#"
   xmlns:svg="http://www.w3.org/2000/svg"
   xmlns="http://www.w3.org/2000/svg"
   xmlns:xlink="http://www.w3.org/1999/xlink"
   version="1.0"
   id="svg1324"
   height="64"
   width="64">
  <defs
     id="defs1326">
    <linearGradient
       id="linearGradient5940">
      <stop
         id="stop5942"
         offset="0"
         style="stop-color:#ffffff;stop-opacity:1;" />
      <stop
         id="stop5944"
         offset="1"
         style="stop-color:#ffffff;stop-opacity:0;" />
    </linearGradient>
    <linearGradient
       id="linearGradient5053">
      <stop
         id="stop5055"
         offset="0"
         style="stop-color:#ffffff;stop-opacity:1;" />
      <stop
         id="stop5057"
         offset="1"
         style="stop-color:#ffffff;stop-opacity:0;" />
    </linearGradient>
    <radialGradient
       r="3"
       fy="46.716667"
       fx="32.5"
       cy="46.716667"
       cx="32.5"
       gradientTransform="matrix(1.25,0,0,0.380555,-18.578397,23.463781)"
       gradientUnits="userSpaceOnUse"
       id="radialGradient2616"
       xlink:href="#linearGradient5940" />
    <radialGradient
       r="2.3836942"
       fy="34.674294"
       fx="47.110653"
       cy="34.674294"
       cx="47.110653"
       gradientTransform="matrix(0.988961,4.346176e-6,-4.13582e-6,2.035648,0.520186,-35.36729)"
       gradientUnits="userSpaceOnUse"
       id="radialGradient2618"
       xlink:href="#linearGradient5053" />
    <radialGradient
       r="2.3836942"
       fy="34.674294"
       fx="47.110653"
       cy="34.674294"
       cx="47.110653"
       gradientTransform="matrix(0.988961,4.346176e-6,-4.13582e-6,2.035648,0.520186,-35.36729)"
       gradientUnits="userSpaceOnUse"
       id="radialGradient2620"
       xlink:href="#linearGradient5053" />
  </defs>
  <metadata
     id="metadata1329">
    <rdf:RDF>
      <cc:Work
         rdf:about="">
        <dc:format>image/svg+xml</dc:format>
        <dc:type
           rdf:resource="http://purl.org/dc/dcmitype/StillImage" />
        <cc:license
           rdf:resource="http://creativecommons.org/licenses/by-sa/4.0/" />
        <dc:title></dc:title>
        <dc:date />
        <dc:creator>
          <cc:Agent>
            <dc:title>Sebastian Wiesner</dc:title>
          </cc:Agent>
        </dc:creator>
        <dc:rights>
          <cc:Agent>
            <dc:title>Copyright (C) 2006-2014 Sebastian Wiesner</dc:title>
          </cc:Agent>
        </dc:rights>
        <dc:publisher>
          <cc:Agent>
            <dc:title />
          </cc:Agent>
        </dc:publisher>
        <dc:language />
        <dc:description />
      </cc:Work>
      <cc:License
         rdf:about="http://creativecommons.org/licenses/by-sa/3.0/">
        <cc:permits
           rdf:resource="http://creativecommons.org/ns#Reproduction" />
        <cc:permits
           rdf:resource="http://creativecommons.org/ns#Distribution" />
        <cc:requires
           rdf:resource="http://creativecommons.org/ns#Notice" />
        <cc:requires
           rdf:resource="http://creativecommons.org/ns#Attribution" />
        <cc:permits
           rdf:resource="http://creativecommons.org/ns#DerivativeWorks" />
        <cc:requires
           rdf:resource="http://creativecommons.org/ns#ShareAlike" />
      </cc:License>
    </rdf:RDF>
  </metadata>
  <g
     transform="translate(-8.5428134,0.58739986)"
     id="layer1">
    <g
       transform="matrix(1.1164564,0,0,1.1164564,16.230448,2.0829957)"
       id="g2580">
      <path
         style="fill:#f74c8f;fill-opacity:1;stroke:#000000;stroke-width:0.80000001;stroke-miterlimit:4;stroke-opacity:1;stroke-dasharray:none"
         id="path7229"
         d="m 53.558062,30.472366 c 0,14.472446 -11.732236,26.204682 -26.204682,26.204682 -14.472446,0 -26.2046812,-11.732236 -26.2046812,-26.204682 0,-14.472446 11.7322352,-26.2046811 26.2046812,-26.2046811 14.463819,0 26.192478,11.7187741 26.204672,26.1825881"
         transform="matrix(0.789764,0,0,0.770074,0.1736532,0.9752392)" />
      <g
         id="g4251"
         transform="translate(-4.6419028,-6.5143388)">
        <path
           transform="matrix(1,0,0,1.074766,-0.727273,-0.808411)"
           d="m 25.636364,22.363636 c 0,2.40997 -1.994368,4.363637 -4.454546,4.363637 -2.460178,0 -4.454545,-1.953667 -4.454545,-4.363637 0,-2.40997 1.994367,-4.363636 4.454545,-4.363636 2.460178,0 4.454546,1.953666 4.454546,4.363636 z"
           id="path3517"
           style="fill:#ffffff;fill-opacity:1;stroke:#000000;stroke-opacity:1" />
        <path
           transform="translate(-0.136363,0.136363)"
           d="m 21.636363,23.272728 c 0,0.602492 -0.488417,1.090909 -1.090909,1.090909 -0.602492,0 -1.090909,-0.488417 -1.090909,-1.090909 0,-0.602493 0.488417,-1.090909 1.090909,-1.090909 0.602492,0 1.090909,0.488416 1.090909,1.090909 z"
           id="path3523"
           style="fill:#000000;fill-opacity:1;stroke:#000000;stroke-opacity:1" />
      </g>
      <use
         x="0"
         y="0"
         xlink:href="#g4251"
         id="use4255"
         width="64"
         height="64"
         transform="translate(12,-1.4843772e-7)" />
      <path
         style="fill:#ffffff;fill-opacity:1;fill-rule:evenodd;stroke:#000000;stroke-width:1.03093135px;stroke-linecap:butt;stroke-linejoin:miter;stroke-opacity:1"
         d="m 13.816952,34.004683 c 0,0 0.14616,5 8.044226,5 7.898065,0 7.898065,-5 7.898065,-5 0,0 -0.159055,2.456795 -8.050673,2.456795 -7.891618,0 -7.630368,-2.297397 -7.891618,-2.456795 z"
         id="path7199" />
      <g
         id="g7217"
         transform="translate(-6.2103028,-6.5004988)">
        <g
           transform="translate(-1.026886,2.026212)"
           id="g5715">
          <path
             style="fill:#000000;fill-opacity:0;stroke:#000000;stroke-opacity:1"
             id="path4257"
             d="m 32.363637,33.727272 c 0,2.460178 -2.279278,4.454546 -5.090909,4.454546 -2.811631,0 -5.090909,-1.994368 -5.090909,-4.454546 0,-2.460178 2.279278,-4.454545 5.090909,-4.454545 2.811631,0 5.090909,1.994367 5.090909,4.454545 z"
             transform="matrix(-1.126262,0,0,0.958794,59.9964,1.426853)" />
          <path
             style="fill:#000000;fill-opacity:1;stroke:#000000;stroke-opacity:1"
             id="path4985"
             d="m 26.545454,33.636364 c 0,0.702908 -0.447715,1.272727 -1,1.272727 -0.552285,0 -1,-0.569819 -1,-1.272727 0,-0.702908 0.447715,-1.272727 1,-1.272727 0.552285,0 1,0.569819 1,1.272727 z"
             transform="translate(1.954546,0.136363)" />
          <use
             x="0"
             y="0"
             xlink:href="#path4985"
             id="use5713"
             transform="translate(3.499999,-2.678986e-7)"
             width="64"
             height="64" />
        </g>
        <path
           transform="matrix(0.255794,0,0,-0.101024,16.8199,34.51354)"
           d="m 62.891233,30.687748 c 0,7.375 -8.614353,13.353619 -19.240697,13.353619 -10.517974,0 -19.086774,-5.861719 -19.238691,-13.160745"
           id="path7213"
           style="fill:none;stroke:#000000;stroke-width:0.80000001;stroke-miterlimit:4;stroke-opacity:1;stroke-dasharray:none" />
        <use
           height="64"
           width="64"
           transform="matrix(1.202524,0,0,1.359346,-5.657323,-11.7804)"
           id="use7215"
           xlink:href="#path7213"
           y="0"
           x="0" />
      </g>
      <path
         style="fill:none;stroke:#000000;stroke-width:0.80000001;stroke-miterlimit:4;stroke-opacity:1;stroke-dasharray:none"
         id="path7225"
         d="m 21.681681,13.672653 c 0,1.784274 -2.057159,3.230714 -4.594794,3.230714 -2.511754,0 -4.558035,-1.418157 -4.594314,-3.184051"
         transform="matrix(1,0,0,-0.811929,-1.3466028,23.589441)" />
      <use
         x="0"
         y="0"
         xlink:href="#path7225"
         id="use7227"
         transform="translate(12.09004,2.5515623e-6)"
         width="64"
         height="64" />
      <path
         style="fill:none;stroke:#000000;stroke-width:1px;stroke-linecap:butt;stroke-linejoin:miter;stroke-opacity:1"
         d="M 21.210715,-0.07382185 21.354303,7.5046832"
         id="path8732" />
      <path
         style="fill:none;stroke:#000000;stroke-width:1px;stroke-linecap:butt;stroke-linejoin:miter;stroke-opacity:1"
         d="M 23.785542,0.50468315 22.359414,6.5046832"
         id="path8750" />
      <path
         style="fill:none;stroke:#000000;stroke-width:1px;stroke-linecap:butt;stroke-linejoin:miter;stroke-opacity:1"
         d="m 18.785542,0.50468315 1,5.00000005"
         id="path8752" />
      <path
         style="fill:none;stroke:#000000;stroke-width:1px;stroke-linecap:butt;stroke-linejoin:miter;stroke-opacity:1"
         d="m 19.785542,6.5046832 -1,-5.0000001"
         id="path8754" />
      <path
         style="fill:none;stroke:#000000;stroke-width:1px;stroke-linecap:butt;stroke-linejoin:miter;stroke-opacity:1"
         d="m 25.785542,1.9364002 -2,4.164032"
         id="path8756" />
      <path
         style="fill:none;stroke:#000000;stroke-width:1px;stroke-linecap:butt;stroke-linejoin:miter;stroke-opacity:1"
         d="m 15.785542,1.5046831 2,4.0000001"
         id="path8758" />
      <path
         style="fill:none;stroke:#000000;stroke-width:1px;stroke-linecap:butt;stroke-linejoin:miter;stroke-opacity:1"
         d="m 14.785542,2.5046831 2,4.0000001"
         id="path8760" />
      <path
         style="fill:none;stroke:#000000;stroke-width:1px;stroke-linecap:butt;stroke-linejoin:miter;stroke-opacity:1"
         d="m 27.241382,3.0850985 -1.45584,2.8717457"
         id="path8778" />
      <path
         style="fill:#f74c8f;fill-opacity:1;fill-rule:evenodd;stroke:url(#radialGradient2616);stroke-width:1.19460571px;stroke-linecap:butt;stroke-linejoin:miter;stroke-opacity:1"
         d="m 18.921609,41.81289 c 0,0 0.339205,-1.141666 3.031467,-1.141666 2.692263,0 3.218534,1.141666 3.218534,1.141666 l 0,0"
         id="path8782" />
      <path
         style="fill:#f74c8f;fill-opacity:1;fill-rule:evenodd;stroke:#000000;stroke-width:1px;stroke-linecap:butt;stroke-linejoin:miter;stroke-opacity:1"
         d="m 14.742574,43.61435 1,9 1,-3 1,3 2,-8 c 0,0 -4.610604,-1.281586 -5,-1 z"
         id="path9520" />
      <use
         x="0"
         y="0"
         xlink:href="#path9520"
         id="use10248"
         transform="matrix(-1,0,0,1,44.537826,-0.04042895)"
         width="64"
         height="64" />
      <g
         id="g4855"
         transform="translate(-6.2144578,-6.4953168)">
        <path
           id="path2228"
           d="m 37,13 5,-6 -1,8 0,0 0,0 -4,-2 z"
           style="fill:#f74c8f;fill-opacity:1;fill-rule:evenodd;stroke:#000000;stroke-width:0.60000002;stroke-linecap:butt;stroke-linejoin:miter;stroke-miterlimit:4;stroke-opacity:1;stroke-dasharray:none" />
        <path
           id="path4853"
           d="m 38.465229,12.685434 2.165435,-2.7985247 -0.433087,3.7313667 0,0 0,0 -1.732348,-0.932842 z"
           style="fill:#ffffff;fill-opacity:1;fill-rule:evenodd;stroke:#000000;stroke-width:0.269667;stroke-linecap:butt;stroke-linejoin:miter;stroke-miterlimit:4;stroke-opacity:1;stroke-dasharray:none" />
      </g>
      <g
         id="g4859"
         transform="matrix(-1,0,0,1,48.838133,-6.1128478)">
        <path
           id="path4861"
           d="m 37,13 5,-6 -1,8 0,0 0,0 -4,-2 z"
           style="fill:#f74c8f;fill-opacity:1;fill-rule:evenodd;stroke:#000000;stroke-width:0.60000002;stroke-linecap:butt;stroke-linejoin:miter;stroke-miterlimit:4;stroke-opacity:1;stroke-dasharray:none" />
        <path
           id="path4863"
           d="m 38.465229,12.685434 2.165435,-2.7985247 -0.433087,3.7313667 0,0 0,0 -1.732348,-0.932842 z"
           style="fill:#ffffff;fill-opacity:1;fill-rule:evenodd;stroke:#000000;stroke-width:0.269667;stroke-linecap:butt;stroke-linejoin:miter;stroke-miterlimit:4;stroke-opacity:1;stroke-dasharray:none" />
      </g>
      <path
         transform="matrix(-1.678068,0,0,1.140972,88.867923,-12.353547)"
         d="m 49.344336,34.149723 c 0,2.579419 -1.000059,4.670452 -2.233695,4.670452 -1.233635,0 -2.233694,-2.091033 -2.233694,-4.670452 0,-2.579419 1.000059,-4.670452 2.233694,-4.670452 1.2329,0 2.232654,2.088634 2.233694,4.666514"
         id="path5061"
         style="fill:url(#radialGradient2618);fill-opacity:1;stroke:#f74c8f;stroke-width:0.30000001;stroke-linecap:round;stroke-linejoin:miter;stroke-miterlimit:4;stroke-opacity:1;stroke-dasharray:none" />
      <path
         style="fill:url(#radialGradient2620);fill-opacity:1;stroke:#f74c8f;stroke-width:0.30000001;stroke-linecap:round;stroke-linejoin:miter;stroke-miterlimit:4;stroke-opacity:1;stroke-dasharray:none"
         id="path4178"
         d="m 49.344336,34.149723 c 0,2.579419 -1.000059,4.670452 -2.233695,4.670452 -1.233635,0 -2.233694,-2.091033 -2.233694,-4.670452 0,-2.579419 1.000059,-4.670452 2.233694,-4.670452 1.2329,0 2.232654,2.088634 2.233694,4.666514"
         transform="matrix(1.678068,0,0,1.140972,-44.241797,-12.353547)" />
    </g>
  </g>
</svg>
